<?xml version="1.0" encoding="iso-8859-1"?>
<!-- Generator: Adobe Illustrator 19.0.0, SVG Export Plug-In . SVG Version: 6.00 Build 0)  -->
<svg version="1.1" id="Capa_1" xmlns="http://www.w3.org/2000/svg" xmlns:xlink="http://www.w3.org/1999/xlink" x="0px" y="0px"
	 viewBox="0 0 512.009 512.009" style="enable-background:new 0 0 512.009 512.009;" xml:space="preserve">
<g>
	<g>
		<path d="M444.178,82.757c-3.493,20.471-5.312,41.783-5.312,63.643c0,11.136,0.503,22.135,1.426,32.914
			c19.127-1.079,38.958-1.618,59.365-1.673C488.137,141.975,469.01,109.701,444.178,82.757z"/>
	</g>
</g>
<g>
	<g>
		<path d="M428.562,67.195c-45.55-41.637-106.13-67.081-172.553-67.081c-14.811,0-29.303,1.335-43.429,3.758
			c66.158,35.31,119.177,100.471,152.174,182.638c18.405-2.478,37.477-4.48,57.262-5.952c-0.942-11.173-1.435-22.574-1.435-34.149
			C420.581,119.026,423.333,92.448,428.562,67.195z"/>
	</g>
</g>
<g>
	<g>
		<path d="M352.997,206.587c-27.557,4.151-53.477,9.399-77.861,15.515c17.527,38.848,27.511,83.081,27.511,130.011
			c0,60.946-13.605,115.721-39.259,159.781c21.669-0.631,43.154-3.931,63.982-9.975c14.318-4.151,28.233-9.573,41.609-16.155
			c1.371-0.677,2.715-1.39,4.078-2.094l2.112-10.77c4.343-27.264,8.832-55.461,8.832-84.215
			C384,323.232,372.955,261.253,352.997,206.587z"/>
	</g>
</g>
<g>
	<g>
		<path d="M504.795,195.918c-21.531-0.046-42.368,0.475-62.446,1.591c8.027,59.026,29.55,109.211,58.35,133.879
			c7.342-23.808,11.31-49.088,11.31-75.273C512.009,235.378,509.467,215.237,504.795,195.918z"/>
	</g>
</g>
<g>
	<g>
		<path d="M64.933,91.543c-1.49,0-2.962-0.082-4.453-0.128c-29.157,34.661-49.253,76.818-56.951,122.551
			c-0.027,0.192-0.064,0.375-0.101,0.567c-1.051,6.327-1.819,12.727-2.395,19.173c-0.091,1.051-0.165,2.121-0.238,3.173
			C0.311,243.25,0,249.65,0,256.114c0,26.469,4.041,52.014,11.529,76.05c52.325-44.16,129.079-91.456,237.294-121.947
			C209.646,138.857,141.879,91.543,64.933,91.543z"/>
	</g>
</g>
<g>
	<g>
		<path d="M184.018,10.491c-0.256,0.073-0.512,0.137-0.759,0.219c-6.171,1.829-12.224,3.886-18.176,6.153
			c-0.878,0.338-1.746,0.695-2.624,1.033c-5.925,2.331-11.767,4.818-17.445,7.561c-0.155,0.073-0.302,0.155-0.457,0.238
			c-5.413,2.624-10.679,5.486-15.854,8.475c-1.07,0.622-2.149,1.216-3.218,1.847c-5.056,3.008-9.993,6.19-14.811,9.518
			c-0.96,0.667-1.902,1.353-2.853,2.03C97.49,54.935,87.735,63.008,78.656,71.767c-0.302,0.293-0.603,0.576-0.914,0.869
			c-0.329,0.32-0.613,0.667-0.942,0.987c80.247,4.654,150.117,56.229,190.126,131.749c24.832-6.354,51.237-11.822,79.296-16.183
			C311.451,104.8,254.61,40.032,184.018,10.491z"/>
	</g>
</g>
<g>
	<g>
		<path d="M423.963,198.725c-18.121,1.335-35.648,3.118-52.571,5.312c19.904,55.771,30.903,118.528,30.903,184.658
			c0,28.727-4.178,56.265-8.421,82.962c45.083-28.937,80.512-71.589,100.379-122.048
			C458.761,323.122,432.869,266.528,423.963,198.725z"/>
	</g>
</g>
<g>
	<g>
		<path d="M257.271,226.821c-110.72,30.638-187.794,79.25-239.113,123.767C54.19,440.992,140.27,506.208,242.021,511.721
			c27.639-42.624,42.35-97.6,42.35-159.607C284.37,306.72,274.523,264.023,257.271,226.821z M97.161,409.541
			c-1.691,1.353-3.712,2.011-5.714,2.011c-2.679,0-5.33-1.17-7.141-3.429c-2.057-2.551-4.306-5.239-6.638-8.009
			c-7.762-9.243-16.558-19.712-21.824-30.171c-2.277-4.507-0.457-10.002,4.05-12.279c4.507-2.286,10.002-0.457,12.279,4.05
			c4.306,8.558,12.379,18.158,19.493,26.633c2.423,2.88,4.763,5.678,6.903,8.338C101.733,400.626,101.093,406.377,97.161,409.541z
			 M200.658,469.362c-1.298,3.803-4.846,6.199-8.658,6.199c-0.978,0-1.966-0.165-2.944-0.494
			c-18.651-6.354-37.266-15.653-56.896-28.416c-4.224-2.77-5.422-8.43-2.679-12.663c2.752-4.233,8.411-5.431,12.654-2.679
			c18.341,11.931,35.621,20.571,52.818,26.441C199.735,459.378,202.286,464.581,200.658,469.362z"/>
	</g>
</g>
<g>
</g>
<g>
</g>
<g>
</g>
<g>
</g>
<g>
</g>
<g>
</g>
<g>
</g>
<g>
</g>
<g>
</g>
<g>
</g>
<g>
</g>
<g>
</g>
<g>
</g>
<g>
</g>
<g>
</g>
</svg>
