<svg id="Capa_1" enable-background="new 0 0 512 512" height="512" viewBox="0 0 512 512" width="512" xmlns="http://www.w3.org/2000/svg"><path d="m329.89 317.964c-5.471 5.481-15.473 14.183-28.686 24.949-3.788 3.086-7.855 6.348-12.15 9.745-13.842 10.983-30.111 23.422-47.752 36.418-4.15 3.045-8.372 6.132-12.666 9.228-86.946 62.895-199.533 132.995-223.739 108.799-13.326-13.326 1.951-53.481 28.893-101.388 2.56-4.563 5.234-9.208 8-13.894 8.764-14.875 18.446-30.297 28.573-45.729 2.88-4.387 5.791-8.774 8.733-13.161 27.448-40.877 57.114-80.815 80.247-109.986 3.396-4.294 6.658-8.361 9.744-12.15 10.766-13.213 19.468-23.215 24.95-28.686 37.512-37.512 98.342-37.512 135.854 0 37.511 37.513 37.511 98.343-.001 135.855z" fill="#ffaa5c"/><path d="m329.888 182.112c-2.216-2.216-4.517-4.297-6.887-6.252 31.127 37.736 29.046 93.667-6.252 128.965-35.297 35.297-258.671 204.822-316.193 193.48.712 3.612 2.128 6.578 4.344 8.794 37.514 37.514 287.473-151.622 324.987-189.136 37.515-37.514 37.515-98.337.001-135.851z" fill="#ff9838"/><path d="m500.452 142.808c15.397-15.397 15.397-40.36 0-55.756-3.591-3.591-7.707-6.333-12.096-8.25 11.498-15.438 10.245-37.375-3.77-51.389-14.014-14.015-35.952-15.268-51.389-3.77-1.916-4.389-4.658-8.505-8.249-12.096-15.397-15.397-40.36-15.397-55.756 0-.271.271-.526.551-.787.828-15.166-9.19-35.186-7.243-48.285 5.856-15.397 15.397-15.397 40.36 0 55.756 1.844 1.844 3.828 3.461 5.913 4.863-5.762 14.233-2.872 31.15 8.669 42.692 2.227 2.227 4.658 4.121 7.227 5.703l-33.4 38.776c7.654 4.247 14.862 9.592 21.36 16.09s11.843 13.706 16.09 21.361l38.776-33.4c1.583 2.569 3.477 5 5.703 7.227 11.542 11.542 28.458 14.431 42.692 8.669 1.402 2.085 3.019 4.069 4.863 5.913 15.397 15.397 40.36 15.397 55.757 0 13.099-13.099 15.046-33.12 5.856-48.285.275-.262.555-.517.826-.788z" fill="#98db7c"/><path d="m499.624 143.596c.277-.261.557-.516.828-.787 15.397-15.397 15.397-40.36 0-55.756-2.264-2.264-4.737-4.189-7.355-5.784 13.163 25.424 1.049 41.64-4.335 47.118-1.314 1.337-1.812 3.271-1.277 5.067 2.419 8.125 7.283 31.035-8.583 46.92-13.06 13.074-34.683 13.197-49.551 2.222-2.799-2.066-5.211-4.409-7.262-6.948-1.284-1.589-3.427-2.243-5.382-1.648-13.482 4.102-28.728.823-39.388-9.837-.932-.932-1.806-1.901-2.624-2.9-1.837-2.245-5.157-2.538-7.355-.645l-31.944 27.515c4.075 4.836 7.604 9.975 10.581 15.341l38.776-33.4c1.583 2.569 3.477 5 5.703 7.227 11.542 11.542 28.458 14.431 42.692 8.669 2.441 3.63 5.533 6.954 9.34 9.765 14.867 10.975 35.741 10.058 49.551-2.222 14.643-13.023 17.166-34.108 7.585-49.917z" fill="#82d361"/><g fill="#e8834d"><path d="m222.165 274.816c-2.996 2.975-7.961 2.992-10.952 0l-51.871-51.871c3.396-4.294 6.658-8.361 9.744-12.15l53.078 53.068c3.025 3.025 3.025 7.928.001 10.953z"/><path d="m241.303 389.076c-4.15 3.045-8.372 6.132-12.666 9.228l-86.471-86.471c-3.024-3.025-3.024-7.928 0-10.952 3.025-3.024 7.928-3.024 10.942 0z"/><path d="m149.474 414.263c-2.975 2.975-7.967 2.975-10.942 0l-68.17-68.17c2.88-4.387 5.791-8.774 8.733-13.161l70.379 70.379c3.024 3.024 3.024 7.927 0 10.952z"/><path d="m67.998 428.983c-2.982 2.982-7.965 2.966-10.952 0l-23.257-23.267c2.56-4.563 5.234-9.208 8-13.894l26.209 26.209c3.024 3.024 3.024 7.927 0 10.952z"/><path d="m289.054 352.658-33.889-33.889c-3.024-3.025-3.024-7.928 0-10.952 3.024-3.014 7.928-3.014 10.952 0l35.086 35.096z"/></g><path d="m241.303 389.076c-4.15 3.045-8.372 6.132-12.666 9.228l-13.14-13.141c4.284-3.097 8.506-6.173 12.655-9.239z" fill="#d66e41"/><path d="m275.914 339.517 13.14 13.141 11.221-8.991.929-.753-13.141-13.151z" fill="#d66e41"/></svg>