<?xml version="1.0" encoding="iso-8859-1"?>
<!-- Generator: Adobe Illustrator 19.0.0, SVG Export Plug-In . SVG Version: 6.00 Build 0)  -->
<svg version="1.1" id="Capa_1" xmlns="http://www.w3.org/2000/svg" xmlns:xlink="http://www.w3.org/1999/xlink" x="0px" y="0px"
	 viewBox="0 0 512 512" style="enable-background:new 0 0 512 512;" xml:space="preserve">
<g>
	<g>
		<g>
			<path d="M10.667,106.667h362.667c5.896,0,10.667-4.771,10.667-10.667V74.667C384,33.5,350.5,0,309.333,0H74.667
				C33.5,0,0,33.5,0,74.667V96C0,101.896,4.771,106.667,10.667,106.667z"/>
			<path d="M458.667,405.333c-5.896,0-10.667,4.771-10.667,10.667c0,5.896,4.771,10.667,10.667,10.667c17.646,0,32,14.354,32,32
				s-14.354,32-32,32s-32-14.354-32-32V181.333c0-29.406-23.927-53.333-53.333-53.333H10.667C4.771,128,0,132.771,0,138.667v234.667
				C0,449.792,62.208,512,138.667,512h106.667C321.792,512,384,449.792,384,373.333V151.298
				c12.389,4.418,21.333,16.147,21.333,30.035v277.333c0,29.406,23.927,53.333,53.333,53.333S512,488.073,512,458.667
				S488.073,405.333,458.667,405.333z M256.115,440.885c-4.656,5.875-9.802,7.115-13.292,7.115c-23.927,0-26.042-27.438-27.74-49.49
				c-2.573-33.458-6.354-47.438-23.083-47.438s-20.51,13.979-23.083,47.438c-1.698,22.052-3.813,49.49-27.74,49.49
				c-3.49,0-8.635-1.24-13.292-7.115c-16.125-20.365-22.781-102.208-18.417-129.198c-10.781-18.813-24.135-50.458-24.135-68.208
				c0-24.865,20.167-51.479,50.198-51.479c13.5,0,23.219,3.125,31.802,5.885c7.979,2.563,14.865,4.781,24.667,4.781
				s16.688-2.219,24.667-4.781c8.583-2.76,18.302-5.885,31.802-5.885c30.031,0,50.198,26.615,50.198,51.479
				c0,17.75-13.354,49.396-24.135,68.208C278.896,338.677,272.24,420.521,256.115,440.885z"/>
		</g>
	</g>
</g>
<g>
</g>
<g>
</g>
<g>
</g>
<g>
</g>
<g>
</g>
<g>
</g>
<g>
</g>
<g>
</g>
<g>
</g>
<g>
</g>
<g>
</g>
<g>
</g>
<g>
</g>
<g>
</g>
<g>
</g>
</svg>
