<?xml version="1.0" encoding="iso-8859-1"?>
<!-- Generator: Adobe Illustrator 18.0.0, SVG Export Plug-In . SVG Version: 6.00 Build 0)  -->
<!DOCTYPE svg PUBLIC "-//W3C//DTD SVG 1.1//EN" "http://www.w3.org/Graphics/SVG/1.1/DTD/svg11.dtd">
<svg version="1.1" id="Capa_1" xmlns="http://www.w3.org/2000/svg" xmlns:xlink="http://www.w3.org/1999/xlink" x="0px" y="0px"
	 viewBox="0 0 441.23 441.23" style="enable-background:new 0 0 441.23 441.23;" xml:space="preserve">
<path d="M440.651,132.739c-0.888-2.354-2.721-4.229-5.054-5.171L396.39,111.75c-2.435-12.666-12.056-22.81-24.436-26.008
	l-2.115-24.363c-0.309-3.565-2.701-6.608-6.093-7.751c-3.391-1.142-7.137-0.167-9.541,2.484l-10.062,11.099l-6.22-21.766
	c-1.072-3.752-4.44-6.386-8.341-6.521c-3.924-0.139-7.444,2.258-8.773,5.928L274.34,173.047c0,0-172.127,8.035-172.199,8.039
	c-35.296,2.121-68.735-16.765-85.167-48.119c-2.309-4.402-7.748-6.102-12.149-3.794c-4.403,2.308-6.101,7.747-3.794,12.149
	c14.69,28.03,40.708,47.75,70.541,54.93c-3.097,3.609-9.751,12.554-13.642,26.617c-4.231,15.291-5.756,39.667,9.801,70.619
	L42.499,327.76c-1.474,2.001-2.054,4.523-1.603,6.968l11.105,60.218c0.787,4.268,4.51,7.367,8.851,7.367h11.312
	c2.669,0,5.2-1.185,6.911-3.233c1.71-2.05,2.422-4.753,1.944-7.378l-7.032-38.627l74.401-55.853c0.131-0.099-0.126,0.107,0,0
	c7.114-5.975,12.278-12.556,15.972-19.322c38.777,6.808,91.844,16.02,125.857,21.498l14.986,95.314
	c0.689,4.377,4.46,7.602,8.891,7.602h9.308c4.971,0,9-4.029,9-9V296.56c8.449-5.77,11.469-15.42,13.472-24.871
	c0.063-0.297,20.022-92.416,20.022-92.416c3.762,0.627,7.561,0.956,11.388,0.956c26.356,0,50.492-15.431,62.987-40.271
	C441.401,137.712,441.539,135.094,440.651,132.739z"/>
<g>
</g>
<g>
</g>
<g>
</g>
<g>
</g>
<g>
</g>
<g>
</g>
<g>
</g>
<g>
</g>
<g>
</g>
<g>
</g>
<g>
</g>
<g>
</g>
<g>
</g>
<g>
</g>
<g>
</g>
</svg>
