<svg id="Layer_1" enable-background="new 0 0 500.03 500.03" height="512" viewBox="0 0 500.03 500.03" width="512" xmlns="http://www.w3.org/2000/svg"><path d="m252.581 395.053c15.688 15.708 15.591 40.979 0 56.57l-35.28 35.28c-15.461 15.5-40.874 15.696-56.57 0l-147.61-147.61c-15.59-15.6-15.59-40.98 0-56.57l35.28-35.28c15.591-15.592 40.862-15.688 56.57 0zm-233.513-17.316c-3.609-3.609-9.609-2.946-12.395 1.331-11.067 16.986-7.654 37.463 5.028 50.146l59.11 59.11c12.572 12.572 33.034 16.189 50.14 5.034 4.278-2.79 4.949-8.788 1.338-12.4zm257.773-209.024c-6.25-6.24-16.38-6.24-22.63 0l-85.5 85.5c-6.25 6.25-6.25 16.38 0 22.63l54.47 54.47c6.229 6.229 16.359 6.251 22.63 0l85.5-85.5c6.25-6.25 6.25-16.38 0-22.63zm204.132-46.442c3.612 3.612 9.613 2.939 12.402-1.341 11.146-17.11 7.485-37.577-5.054-50.117l-59.11-59.11c-12.651-12.642-33.115-16.126-50.123-5.049-4.278 2.786-4.944 8.787-1.334 12.397zm-141.682-109.148c-15.6-15.59-40.98-15.6-56.57 0l-35.28 35.28c-15.591 15.59-15.688 40.861 0 56.57l147.61 147.61c15.723 15.703 40.996 15.575 56.57 0l35.28-35.28c15.59-15.59 15.59-40.97 0-56.57z"/></svg>