<svg id="Layer_1" enable-background="new 0 0 512.447 512.447" height="512" viewBox="0 0 512.447 512.447" width="512" xmlns="http://www.w3.org/2000/svg"><g><g><path d="m89.483 422.923c0 3.954 3.209 7.171 7.152 7.171h46.09c3.943 0 7.152-3.217 7.152-7.171v-38.94h-60.394z"/><path d="m142.725 306.003h-46.09c-3.943 0-7.152 3.217-7.152 7.171v38.94h60.394v-38.94c0-3.954-3.209-7.171-7.152-7.171z"/><path d="m360.61 0h-348.117c-6.585 0-11.924 5.353-11.924 11.955v488.12c0 6.603 5.339 11.955 11.924 11.955h348.117c6.586 0 11.924-5.353 11.924-11.955v-488.12c.001-6.602-5.338-11.955-11.924-11.955zm-178.947 422.923c0 21.526-17.468 39.04-38.938 39.04h-46.09c-21.47 0-38.938-17.513-38.938-39.04v-109.749c0-21.526 17.468-39.04 38.938-39.04h46.09c21.47 0 38.938 17.514 38.938 39.04zm117.851-185.655h-225.924c-8.777 0-15.893-7.134-15.893-15.935s7.116-15.935 15.893-15.935h225.924c8.777 0 15.893 7.134 15.893 15.935s-7.116 15.935-15.893 15.935zm1.238-67.392h-227.162c-8.777 0-15.893-7.134-15.893-15.935s7.116-15.935 15.893-15.935h227.162c8.777 0 15.893 7.134 15.893 15.935s-7.115 15.935-15.893 15.935zm0-67.391h-227.162c-8.777 0-15.893-7.134-15.893-15.935s7.116-15.935 15.893-15.935h227.162c8.777 0 15.893 7.134 15.893 15.935s-7.115 15.935-15.893 15.935z"/></g><path d="m438.238 175.379h73.64v252.586h-73.64z"/><path d="m438.544 459.598h73.019c.172 0 .311.129.311.287v39.733c0 7.083-6.213 12.826-13.878 12.826l-47.739.003c-6.641 0-12.024-4.975-12.024-11.112v-41.451c.001-.158.14-.286.311-.286z"/><path d="m468.179 62.505-29.942 80.623h73.627l-31.307-80.712c-2.202-5.679-10.257-5.62-12.378.089z"/></g></svg>