<?xml version="1.0" encoding="iso-8859-1"?>
<!-- Generator: Adobe Illustrator 18.0.0, SVG Export Plug-In . SVG Version: 6.00 Build 0)  -->
<!DOCTYPE svg PUBLIC "-//W3C//DTD SVG 1.1//EN" "http://www.w3.org/Graphics/SVG/1.1/DTD/svg11.dtd">
<svg version="1.1" id="Capa_1" xmlns="http://www.w3.org/2000/svg" xmlns:xlink="http://www.w3.org/1999/xlink" x="0px" y="0px"
	 viewBox="0 0 492.363 492.363" style="enable-background:new 0 0 492.363 492.363;" xml:space="preserve">
<g id="XMLID_85_">
	<path id="XMLID_86_" d="M118.795,77.543c19.581-12.471,25.35-38.487,12.888-58.077C119.187-0.134,93.196-5.885,73.579,6.594
		C53.997,19.083,48.23,45.081,60.707,64.662C73.186,84.261,99.177,90.031,118.795,77.543z"/>
	<path id="XMLID_87_" d="M442.193,60.88c-7.566-13.075-24.335-17.497-37.364-9.952L284.81,120.48
		c-2.457,1.423-4.681,3.221-6.585,5.339l-49.828,55.195l-34.178-53.646l31.793-14.552c2.207-1.015,4.254-2.386,6.052-4.05
		l53.69-50.023c9.202-8.58,9.701-23,1.14-32.202c-8.599-9.186-22.983-9.711-32.222-1.14L203.69,72.914l-38.915,17.809
		c-11.036-5.607-23.172-5.231-35.816,1.602c-8.463,4.574-20.696,10.377-29.943,24.166c-12.487,18.621-48.845,75.212-48.845,75.212
		c-6.214,9.541-4.416,22.2,4.199,29.64l48.279,41.752c9.524,8.25,23.924,7.173,32.13-2.324c8.243-9.522,7.192-23.906-2.331-32.139
		l-33.253-28.768l18.673-28.748l52.068,81.735c1.124,4.218,30.602,78.833,32.205,82.892l7.333,130.814
		c0.838,14.856,13.476,26.559,28.838,25.768c15.08-0.846,26.615-13.751,25.777-28.83l-7.582-135.193
		c-0.18-2.9-0.802-5.758-1.852-8.464l-23.623-60.15l84.913-94.046l116.299-67.397C445.309,90.67,449.758,73.946,442.193,60.88z"/>
</g>
<g>
</g>
<g>
</g>
<g>
</g>
<g>
</g>
<g>
</g>
<g>
</g>
<g>
</g>
<g>
</g>
<g>
</g>
<g>
</g>
<g>
</g>
<g>
</g>
<g>
</g>
<g>
</g>
<g>
</g>
</svg>
