<svg height="512" viewBox="0 0 60 42" width="512" xmlns="http://www.w3.org/2000/svg"><g id="Page-1" fill="none" fill-rule="evenodd"><g id="022---Surgical-Mask" fill="rgb(0,0,0)" fill-rule="nonzero"><path id="Shape" d="m14 10.993h.02c4.7532568-.1249049 9.198282-2.38101683 12.105-6.144.9459719-1.16815631 2.3682105-1.84753581 3.8713568-1.84928208 1.5031464-.00174627 2.9269597.67432687 3.8756432 1.84028208 2.9070131 3.76597065 7.3532724 6.0252681 12.109 6.153h.019l4 .007v-1c0-1.1045695-.8954305-2-2-2h-1.51c-4.0155488-.04752901-7.7957131-1.90271168-10.29-5.05-1.51724-1.86650111-3.794622-2.95014881-6.2-2.95014881s-4.68276 1.0836477-6.2 2.95014881c-2.4942869 3.14728832-6.2744512 5.00247099-10.29 5.05h-1.51c-1.1045695 0-2 .8954305-2 2v1z"/><path id="Shape" d="m46 12.993h-.022c-5.3577453-.1273516-10.3738181-2.6587075-13.659-6.893-.5689345-.69922357-1.4229644-1.10444767-2.3244064-1.10289513-.9014419.00155253-1.754071.40971598-2.3205936 1.11089513-3.2800159 4.2475094-8.3084909 6.7793984-13.674 6.885l-4 .007v8c-.07982545 10.6562581 7.8706399 19.6661249 18.454 20.913 1.0274029.1159983 2.0645971.1159983 3.092 0 10.5833601-1.2468751 18.5338254-10.2567419 18.454-20.913v-8zm-28.846 3.019c8.513904 1.3099961 17.178096 1.3099961 25.692 0 .3551081-.0596629.714872.0761988.9418979.3556995.227026.2795007.2862528.6594753.1550617.9948114-.131191.3353362-.4325391.5742457-.7889596.6254891-4.3522763.6730667-8.7499886 1.0093977-13.154 1.006-4.4040114.0033977-8.8017237-.3329333-13.154-1.006-.5400995-.0907439-.9067252-.5990531-.8223782-1.1401885s.5882827-.9137498 1.1303782-.8358115zm-1.109 6.688c.0787425-.2533.2548972-.4649372.4897012-.5883406s.5090172-.1484612.7622988-.0696594c8.2706401 2.589997 17.1353599 2.589997 25.406 0 .3411886-.1061079.7130678-.0221337.9755543.2202904.2624864.2424241.3757022.6064681.297.9550001-.0787022.3485319-.3373656.6286016-.6785543.7347095-4.3039928 1.3466574-8.7872514 2.0331216-13.297 2.036-4.510601-.0016041-8.9948904-.6870598-13.3-2.033-.2534409-.0793331-.4649168-.2562195-.5877913-.4916508-.1228745-.2354312-.1470549-.5100695-.0672087-.7633492zm27.386 8.2c-8.4754161 4.1401645-18.3865839 4.1401645-26.862 0-.346031-.1387965-.5861159-.458566-.6228545-.8295811s.1359703-.7316602.4480604-.9356251c.3120902-.2039649.7117318-.2173764 1.0367941-.0347938 7.9313222 3.8750661 17.2066778 3.8750661 25.138 0 .3250623-.1825826.7247039-.1691711 1.0367941.0347938.3120901.2039649.484799.56461.4480604.9356251s-.2768235.6907846-.6228545.8295811z"/><path id="Shape" d="m9.28 28.67c-5.18-1.22-9.28-5.77-9.28-10.67v-5c0-2.209139 1.790861-4 4-4h4.13c-.08930412.32573075-.13305328.66226279-.13 1v1h-4c-1.10320187.0032948-1.9967052.8967981-2 2v5c0 3.95 3.08 7.11 6.62 8.38.17891725.7745797.39923343 1.5390101.66 2.29z"/><path id="Shape" d="m60 13v5c0 4.9-4.1 9.45-9.28 10.67.2607666-.7509899.4810827-1.5154203.66-2.29 3.54-1.27 6.62-4.43 6.62-8.38v-5c-.0032948-1.1032019-.8967981-1.9967052-2-2h-4v-1c.0030533-.33773721-.0406959-.67426925-.13-1h4.13c2.209139 0 4 1.790861 4 4z"/></g></g></svg>