<svg id="Capa_1" enable-background="new 0 0 512 512" height="512" viewBox="0 0 512 512" width="512" xmlns="http://www.w3.org/2000/svg"><g><g><path d="m233.934 188.864c-10.212 5.059-18.937 11.048-25.386 16.053 6.446 5.003 15.172 10.993 25.386 16.052-1.907-4.991-2.961-10.4-2.961-16.053 0-5.652 1.055-11.061 2.961-16.052z"/></g><g><path d="m321.224 204.916c0 5.686-1.068 11.125-2.996 16.14 10.265-5.068 19.01-11.083 25.458-16.11-6.453-5.011-15.192-11.014-25.424-16.082 1.907 4.991 2.962 10.4 2.962 16.052z"/></g><g><path d="m276.099 189.791c-8.34 0-15.126 6.785-15.126 15.125s6.786 15.125 15.126 15.125 15.125-6.785 15.125-15.125-6.786-15.125-15.125-15.125z"/></g><g><path d="m415.22 59.619c-35.966-37.187-84.081-58.34-135.484-59.562-46.802-1.125-92.437 14.57-128.521 44.16-35.575 29.172-59.799 70.011-68.21 114.991-7.903 42.259-40.345 150.485-40.671 151.573-1.364 4.542-.5 9.461 2.331 13.266s7.293 6.048 12.036 6.048h46.474v61.352c0 19.693 16.021 35.714 35.715 35.714h48.486v69.839c0 8.284 6.716 15 15 15h181.754c8.284 0 15-6.716 15-15v-150.912c20.572-16.978 37.71-38.248 49.823-61.912 13.899-27.154 21.079-56.48 21.341-87.165.437-51.425-19.121-100.219-55.074-137.392zm-102.81 58.216 4.775-16.851c2.259-7.971 10.554-12.603 18.521-10.342 7.971 2.259 12.601 10.551 10.342 18.521l-4.775 16.851c-1.871 6.603-7.885 10.914-14.424 10.914-1.354 0-2.73-.185-4.098-.572-7.97-2.258-12.6-10.55-10.341-18.521zm-51.311-25.335c0-8.284 6.716-15 15-15s15 6.716 15 15v21c0 8.284-6.716 15-15 15s-15-6.716-15-15zm-44.609-1.857c7.968-2.257 16.263 2.372 18.521 10.342l4.775 16.851c2.259 7.97-2.372 16.263-10.342 18.521-1.366.387-2.744.572-4.097.572-6.541 0-12.553-4.311-14.424-10.915l-4.775-16.851c-2.259-7.969 2.372-16.262 10.342-18.52zm160.776 124.691c-1.833 1.898-45.525 46.499-101.167 46.499s-99.335-44.601-101.167-46.5c-5.611-5.812-5.61-15.023 0-20.835 1.832-1.898 45.525-46.498 101.167-46.498s99.334 44.6 101.167 46.499c5.61 5.811 5.61 15.023 0 20.835z"/></g></g></svg>