<?xml version="1.0" encoding="iso-8859-1"?>
<!-- Generator: Adobe Illustrator 19.0.0, SVG Export Plug-In . SVG Version: 6.00 Build 0)  -->
<svg version="1.1" id="Capa_1" xmlns="http://www.w3.org/2000/svg" xmlns:xlink="http://www.w3.org/1999/xlink" x="0px" y="0px"
	 viewBox="0 0 387.2 387.2" style="enable-background:new 0 0 387.2 387.2;" xml:space="preserve">
<g>
	<g>
		<path d="M304.8,10.84l0-0.04C297.927,3.891,288.585,0.004,278.84,0H108.32C88.067,0.066,71.666,16.467,71.6,36.72v313.72
			c0.004,9.745,3.891,19.087,10.8,25.96c6.863,6.899,16.189,10.785,25.92,10.8h170.56c9.731-0.015,19.057-3.901,25.92-10.8
			c6.899-6.863,10.785-16.189,10.8-25.92V36.76C315.585,27.029,311.699,17.703,304.8,10.84z M193.6,362.28L193.6,362.28
			c-5.479,0-9.92-4.441-9.92-9.92c0-5.479,4.441-9.92,9.92-9.92c5.479,0,9.92,4.441,9.92,9.92
			C203.52,357.839,199.079,362.28,193.6,362.28z M286.44,300c0,13.255-10.745,24-24,24H124.72c-13.255,0-24-10.745-24-24V66.2
			c0-13.255,10.745-24,24-24h137.76c13.255,0,24,10.745,24,24L286.44,300z"/>
	</g>
</g>
<g>
</g>
<g>
</g>
<g>
</g>
<g>
</g>
<g>
</g>
<g>
</g>
<g>
</g>
<g>
</g>
<g>
</g>
<g>
</g>
<g>
</g>
<g>
</g>
<g>
</g>
<g>
</g>
<g>
</g>
</svg>
