<?xml version="1.0" encoding="iso-8859-1"?>
<!-- Generator: Adobe Illustrator 17.1.0, SVG Export Plug-In . SVG Version: 6.00 Build 0)  -->
<!DOCTYPE svg PUBLIC "-//W3C//DTD SVG 1.1//EN" "http://www.w3.org/Graphics/SVG/1.1/DTD/svg11.dtd">
<svg version="1.1" id="Capa_1" xmlns="http://www.w3.org/2000/svg" xmlns:xlink="http://www.w3.org/1999/xlink" x="0px" y="0px"
	 viewBox="0 0 94.5 94.5" style="enable-background:new 0 0 94.5 94.5;" xml:space="preserve">
<g>
	<path d="M7.276,64.894c0.783,1.856,2.596,3.055,4.619,3.055c0.666,0,1.316-0.131,1.932-0.391L41.164,56.03
		c0.321-0.135,0.62-0.301,0.896-0.492c0.247-0.037,0.491-0.093,0.725-0.191l23.384-9.861l8.864,21.018
		c0.469,1.114,1.557,1.834,2.77,1.834c0.4,0,0.791-0.079,1.16-0.235l2.072-0.874c0.737-0.31,1.309-0.891,1.611-1.635
		c0.303-0.744,0.298-1.559-0.012-2.295L72.141,38.417l-0.001-0.001l-2.017-4.783c-0.469-1.114-1.557-1.834-2.77-1.834
		c-0.4,0-0.791,0.079-1.16,0.235L37.972,43.934c-1.21,0.511-1.898,1.728-1.814,2.971L9.804,58.019
		c-1.227,0.517-2.18,1.484-2.685,2.725s-0.497,2.599,0.02,3.825L7.276,64.894z"/>
	<path d="M83.695,41.547c1.358,0,2.686-0.27,3.947-0.801c2.503-1.056,4.445-3.022,5.468-5.539c1.023-2.516,1.006-5.28-0.05-7.783
		c-1.594-3.778-5.273-6.219-9.375-6.219c-1.358,0-2.686,0.269-3.947,0.801c-5.167,2.179-7.597,8.155-5.418,13.322
		C75.914,39.106,79.594,41.547,83.695,41.547z"/>
	<path d="M92.5,69.295H2c-1.104,0-2,0.896-2,2s0.896,2,2,2h90.5c1.104,0,2-0.896,2-2S93.604,69.295,92.5,69.295z"/>
</g>
<g>
</g>
<g>
</g>
<g>
</g>
<g>
</g>
<g>
</g>
<g>
</g>
<g>
</g>
<g>
</g>
<g>
</g>
<g>
</g>
<g>
</g>
<g>
</g>
<g>
</g>
<g>
</g>
<g>
</g>
</svg>
