<?xml version="1.0" encoding="iso-8859-1"?>
<!-- Generator: Adobe Illustrator 19.0.0, SVG Export Plug-In . SVG Version: 6.00 Build 0)  -->
<svg version="1.1" id="Capa_1" xmlns="http://www.w3.org/2000/svg" xmlns:xlink="http://www.w3.org/1999/xlink" x="0px" y="0px"
	 viewBox="0 0 512 512" style="enable-background:new 0 0 512 512;" xml:space="preserve">
<g>
	<g>
		<path d="M14.769,290.462C6.613,290.462,0,297.074,0,305.231V384c0,8.157,6.613,14.769,14.769,14.769h384V290.462H14.769z"/>
	</g>
</g>
<g>
	<g>
		<path d="M497.231,290.462h-68.923v108.308h68.923c8.157,0,14.769-6.613,14.769-14.769v-78.769
			C512,297.074,505.387,290.462,497.231,290.462z"/>
	</g>
</g>
<g>
	<g>
		<path d="M469.662,167.387c0-4.666,1.263-6.245,4.641-10.467c4.426-5.533,11.113-13.892,11.113-28.919
			c0-8.157-6.613-14.769-14.769-14.769s-14.769,6.613-14.769,14.769c0,4.666-1.263,6.245-4.641,10.467
			c-4.426,5.532-11.113,13.892-11.113,28.919c0,15.027,6.688,23.387,11.113,28.919c3.377,4.222,4.641,5.801,4.641,10.467
			c0,4.664-1.263,6.243-4.64,10.464c-4.427,5.532-11.114,13.891-11.114,28.917c0,8.157,6.613,14.769,14.769,14.769
			c8.156,0,14.769-6.613,14.769-14.769c0-4.664,1.263-6.243,4.639-10.464c4.426-5.532,11.114-13.891,11.114-28.917
			c0-15.027-6.688-23.388-11.113-28.919C470.925,173.632,469.662,172.053,469.662,167.387z"/>
	</g>
</g>
<g>
	<g>
		<path d="M410.585,167.387c0-4.666,1.263-6.245,4.641-10.467c4.426-5.533,11.113-13.892,11.113-28.919
			c0-8.157-6.613-14.769-14.769-14.769S396.8,119.843,396.8,128c0,4.666-1.263,6.245-4.641,10.467
			c-4.426,5.532-11.113,13.892-11.113,28.919c0,15.027,6.688,23.387,11.113,28.919c3.377,4.222,4.641,5.801,4.641,10.467
			c0,4.664-1.263,6.243-4.64,10.464c-4.427,5.532-11.114,13.891-11.114,28.917c0,8.157,6.613,14.769,14.769,14.769
			s14.769-6.613,14.769-14.769c0-4.664,1.263-6.243,4.64-10.464c4.426-5.532,11.114-13.891,11.114-28.917
			c0-15.027-6.688-23.388-11.113-28.919C411.848,173.632,410.585,172.053,410.585,167.387z"/>
	</g>
</g>
<g>
</g>
<g>
</g>
<g>
</g>
<g>
</g>
<g>
</g>
<g>
</g>
<g>
</g>
<g>
</g>
<g>
</g>
<g>
</g>
<g>
</g>
<g>
</g>
<g>
</g>
<g>
</g>
<g>
</g>
</svg>
