<svg id="Capa_1" enable-background="new 0 0 512 512" height="512" viewBox="0 0 512 512" width="512" xmlns="http://www.w3.org/2000/svg"><g><path d="m361.88 321.716-24.599-39.647c25.816 32.077 73.585 33.671 101.473 4.016 25.464-27.077 24.164-69.6-2.916-95.068-27.066-25.456-69.598-24.165-95.067 2.917-19.566 20.806-23.115 50.389-12.099 74.259l-59.504-95.904 88.302-25.481c27.423-7.913 40.383-39.303 26.45-64.27-10.117-18.128-31.115-26.77-51.059-21.014l-133.684 38.576c-34.661 10.003-50.183 50.295-31.151 80.971l40.406 65.123-70.863 43.969c85.253 1.959 146.851 27.916 224.311 31.553z"/><path d="m19.105 365.89c193.797-55.09 266.988 56.126 481.68.085 8.016-2.092 12.817-10.287 10.725-18.302s-10.287-12.816-18.302-10.725c-206.264 53.844-279.556-57.55-482.306.085-7.968 2.265-12.592 10.561-10.327 18.53 2.266 7.97 10.565 12.592 18.53 10.327z"/><path d="m493.208 406.948c-206.643 53.942-279.154-57.666-482.306.085-7.968 2.265-12.592 10.561-10.327 18.53s10.564 12.593 18.53 10.327c193.797-55.09 266.988 56.126 481.68.085 8.016-2.092 12.817-10.287 10.725-18.302-2.092-8.016-10.287-12.817-18.302-10.725z"/></g></svg>