<svg height="512" viewBox="0 0 64 64" width="512" xmlns="http://www.w3.org/2000/svg"><g id="toothbrush" fill="rgb(0,0,0)"><path d="m38.24 32a3 3 0 0 0 -3-.74c-10.49-4.26-10.34-4.08-10.34-4.18s0 .09-15.82-15.76a1 1 0 0 0 -1.41 0l-1.42 1.42a1 1 0 0 0 0 1.41c18 18 15.32 15.56 16.74 16.14 8.28 3.37 9 3.28 10.73 5.63.26.32 3.94 4 19.54 19.59a3 3 0 0 0 4.25-4.25c-16.94-16.92-12.51-12.52-19.27-19.26z"/><path d="m19 19.81 1.41 1.42c5.25-5.25 5.25-5.11 5.25-5.67a1 1 0 0 0 -1.71-.7c-5.03 5.02-4.87 4.95-4.95 4.95z"/><path d="m16.85 7.78c1-.92-.48-2.33-1.4-1.41l-4.95 5 1.41 1.41z"/><path d="m14.74 15.56c5.26-5.29 5.26-5.09 5.26-5.66a1 1 0 0 0 -1.69-.73l-5 5z"/><path d="m17.57 18.4c5.28-5.3 5.23-5.08 5.23-5.66a1 1 0 0 0 -1.7-.74l-5 5z"/><path d="m32.18 37.19c-1.72-2-.33-1.14-9.72-4.95l-10.38 10.37 11.31 11.31 12.73-12.73c-4.02-4.03-3.63-3.62-3.94-4z"/><path d="m36.14 29.13c2.59 0 3.44 1.38 7 5l5.86-5.86a5 5 0 0 0 1.11-5.39l-1.28-3.21-2.54-2.54-3.21-1.28a5 5 0 0 0 -5.34 1.15l-9.37 9.38c8.4 3.33 6.63 2.75 7.77 2.75z"/><path d="m22.69 56-12.75-12.71a1 1 0 0 0 -1.4 0l-1.41 1.44 14.14 14.14 1.42-1.41a1 1 0 0 0 0-1.46z"/><path d="m53.26 15.56a1 1 0 0 0 1.42 0l3.53-3.56a1 1 0 0 0 0-1.41c-2.91-2.91-3-3.13-3.53-3.13s-.36 0-4.24 3.83a1 1 0 0 0 0 1.42z"/><path d="m48.73 14.27h1.99v4h-1.99z" transform="matrix(.707 -.707 .707 .707 3.06 39.93)"/></g></svg>