<svg id="Capa_1" enable-background="new 0 0 510 510" height="512" viewBox="0 0 510 510" width="512" xmlns="http://www.w3.org/2000/svg"><g id="XMLID_2113_"><path id="XMLID_2126_" d="m375 45c0-24.812-20.187-45-45-45h-150c-24.813 0-45 20.188-45 45v15h240z"/><path id="XMLID_2118_" d="m105 420h300v-210h-300zm153-174 24 18-27 36h60l-63 84-24-18 27-36h-60z"/><path id="XMLID_2116_" d="m351.201 120h-6.201v-30h-180v30h-6.202c-29.664 0-53.798 24.134-53.798 53.799v6.201h300v-6.201c0-29.665-24.134-53.799-53.799-53.799z"/><path id="XMLID_2115_" d="m105 456.201c0 29.665 24.134 53.799 53.798 53.799h192.403c29.665 0 53.799-24.134 53.799-53.799v-6.201h-300z"/></g></svg>