<svg id="Layer_1" enable-background="new 0 0 511.867 511.867" height="512" viewBox="0 0 511.867 511.867" width="512" xmlns="http://www.w3.org/2000/svg"><g><path d="m467.601 332.352c-5.015 0-9.989.854-14.784 2.54l-157.518 55.366h-75.271c-23.224-.964-23.206-34.048 0-35.004h52.83c53.081-2.203 53.039-77.82 0-80.003h-80.499c-47.964 0-93.057 18.678-126.973 52.594l-11.572 11.572h-53.814v155.846h325.989l161.045-78.454c41.95-21.144 27.593-83.848-19.433-84.457z"/><path d="m255.983 217.09c28.122 0 51-22.879 51-51 1.581-16.952-22.547-48.976-40.376-66.59l-10.624-10.659-10.624 10.659c-18.048 17.825-41.976 49.8-40.375 66.59-.001 28.121 22.878 51 50.999 51z"/><path d="m362.245 273.465c22.24 0 40.333-18.094 40.333-40.333 0-9.49-5.036-20.354-15.848-34.188-6.812-8.715-13.576-15.524-13.861-15.81l-10.625-10.66-10.624 10.66c-10.312 10.15-30.793 34.845-29.709 49.998 0 22.239 18.094 40.333 40.334 40.333z"/><path d="m362.245 117.593c22.24 0 40.333-18.094 40.333-40.333 0-9.49-5.036-20.354-15.848-34.188-6.811-8.715-13.576-15.524-13.861-15.81l-10.624-10.659-10.624 10.659c-.285.285-7.05 7.094-13.861 15.809-10.812 13.834-15.848 24.698-15.848 34.188-.001 22.24 18.093 40.334 40.333 40.334z"/></g></svg>